<svg viewBox="0 0 156 35" fill="none" xmlns="http://www.w3.org/2000/svg">
<path d="M45.5633 11.512L35.8005 17.5914V9.94641H53.3285L43.0565 32.911L53.6811 24.8462V34.4765H35.2913L45.5633 11.512Z" fill="black"/>
<path d="M68.3693 34.4765H55.8842C57.8525 32.3381 58.582 27.7946 58.0434 18.0359C57.7986 13.6504 56.9369 11.2255 55.1841 9.94641H61.3875L72.9815 21.8979C72.6583 15.3493 70.9594 11.9268 67.346 9.94641H77.0257C74.8958 12.4256 74.5433 17.0432 75.3022 35L74.935 34.6148L60.0949 19.0532C60.5257 28.1897 63.0326 32.5999 68.3742 34.4765H68.3693Z" fill="black"/>
<path d="M78.24 21.6855C78.24 14.5344 81.775 9.67969 88.1644 9.67969C94.5538 9.67969 98.0888 14.5344 98.0888 21.6855C98.0888 29.4095 94.0153 34.7086 88.1644 34.7333C82.3136 34.7086 78.24 29.4095 78.24 21.6855ZM85.5744 23.251C88.6491 28.6292 91.3714 31.054 93.2074 30.012C95.0924 28.9699 94.2601 25.4981 91.0237 20.1743C87.949 14.801 85.2023 12.3712 83.3662 13.4429C81.4763 14.4603 82.3429 17.9321 85.5793 23.256L85.5744 23.251Z" fill="black"/>
<path d="M97.3103 9.94641H105.428L111.602 30.0417C113.786 21.0139 113.438 15.2209 110.119 9.94641H120.689C116.807 18.2433 113.463 27.197 113.032 34.4765H106.074L100.302 16.0802C99.1953 12.5836 98.3042 10.7317 97.3103 9.94641Z" fill="black"/>
<path d="M124.308 28.002L123.984 16.3913C123.906 13.2355 123.255 11.4329 121.908 9.94641H132.479C131.133 11.4329 130.648 13.2355 130.756 16.3913L131.054 28.002C131.133 31.1578 131.808 32.9604 133.155 34.4765H122.584C123.935 32.9604 124.391 31.1627 124.308 28.002Z" fill="black"/>
<path d="M128.621 0L132.939 5.11641L123.201 6.96839L128.621 0Z" fill="black"/>
<path d="M147.344 34.4765H134.859C136.827 32.3381 137.556 27.7946 137.018 18.0359C136.773 13.6504 135.911 11.2255 134.158 9.94641H140.362L151.956 21.8979C151.633 15.3493 149.934 11.9268 146.32 9.94641H156C153.87 12.4256 153.518 17.0432 154.277 35L139.069 19.0532C139.5 28.1897 142.007 32.5999 147.349 34.4765H147.344Z" fill="black"/>
<path d="M15.4522 0L19.7657 5.11641L10.0322 6.96839L15.4522 0Z" fill="#C88C64"/>
<path d="M22.0571 16.7123C23.9851 16.7123 25.548 15.1358 25.548 13.191C25.548 11.2463 23.9851 9.6698 22.0571 9.6698C20.1291 9.6698 18.5662 11.2463 18.5662 13.191C18.5662 15.1358 20.1291 16.7123 22.0571 16.7123Z" fill="#C88C64"/>
<path d="M12.7739 16.7123C14.7019 16.7123 16.2648 15.1358 16.2648 13.191C16.2648 11.2463 14.7019 9.6698 12.7739 9.6698C10.8459 9.6698 9.28296 11.2463 9.28296 13.191C9.28296 15.1358 10.8459 16.7123 12.7739 16.7123Z" fill="#C88C64"/>
<path d="M3.49093 16.7123C5.41892 16.7123 6.98186 15.1358 6.98186 13.191C6.98186 11.2463 5.41892 9.6698 3.49093 9.6698C1.56294 9.6698 0 11.2463 0 13.191C0 15.1358 1.56294 16.7123 3.49093 16.7123Z" fill="#C88C64"/>
<path d="M17.4155 25.9871C19.3435 25.9871 20.9064 24.4105 20.9064 22.4658C20.9064 20.5211 19.3435 18.9446 17.4155 18.9446C15.4875 18.9446 13.9246 20.5211 13.9246 22.4658C13.9246 24.4105 15.4875 25.9871 17.4155 25.9871Z" fill="#C88C64"/>
<path d="M8.13253 25.9871C10.0605 25.9871 11.6235 24.4105 11.6235 22.4658C11.6235 20.5211 10.0605 18.9446 8.13253 18.9446C6.20454 18.9446 4.6416 20.5211 4.6416 22.4658C4.6416 24.4105 6.20454 25.9871 8.13253 25.9871Z" fill="#C88C64"/>
<path d="M12.7739 34.7975C14.7019 34.7975 16.2648 33.221 16.2648 31.2762C16.2648 29.3315 14.7019 27.755 12.7739 27.755C10.8459 27.755 9.28296 29.3315 9.28296 31.2762C9.28296 33.221 10.8459 34.7975 12.7739 34.7975Z" fill="#C88C64"/>
</svg>